<svg width="28" height="31" viewBox="0 0 28 31" fill="none" xmlns="http://www.w3.org/2000/svg">
    <g filter="url(#filter0_d_677_11788)">
        <mask id="path-1-outside-1_677_11788" maskUnits="userSpaceOnUse" x="2" y="0" width="24" height="28"
            fill="black">
            <rect fill="white" x="2" width="24" height="28" />
            <path fill-rule="evenodd" clip-rule="evenodd"
                d="M9.41489 16.1176L8.16321 14.2052C7.30854 12.8993 5.48805 12.4229 4.09554 13.1388L4.42001 12.972C4.07443 13.1496 3.90872 13.5925 4.051 13.9607L5.78362 18.4434C6.05829 19.154 6.7598 20.1591 7.3411 20.664C7.3411 20.664 10.8267 23.549 10.8267 24.6306V26H16.4737L17.8855 23.1765L19.2972 26H20.709V24.6306C20.709 23.549 22.8391 20.1421 22.8391 20.1421C23.2313 19.4799 23.5581 18.3133 23.5581 17.5387V11.8425C23.5325 10.5814 22.4605 9.55935 21.1378 9.55935C20.476 9.55935 19.94 10.0704 19.94 10.7013V11.1575C19.94 9.89638 18.868 8.87432 17.5453 8.87432C16.8836 8.87432 16.3475 9.38535 16.3475 10.0163V10.4725C16.3475 9.21136 15.2755 8.18929 13.9528 8.18929C13.2911 8.18929 12.7551 8.70032 12.7551 9.33123V9.78746C12.7551 9.58478 12.7334 9.42367 12.6915 9.29599L12.3262 3.41348C12.2768 2.61802 11.6064 2 10.8267 2C10.0415 2 9.41489 2.63195 9.41489 3.41149V9.05882V16.1176ZM19.3223 14.7058L20.7341 14.7058V20.3529H19.3223V14.7058V14.7058ZM16.499 14.7058L17.9108 14.7058V20.3529H16.499V14.7058V14.7058ZM13.6758 14.7058L15.0875 14.7058V20.3529H13.6758V14.7058V14.7058Z" />
        </mask>
        <path fill-rule="evenodd" clip-rule="evenodd"
            d="M9.41489 16.1176L8.16321 14.2052C7.30854 12.8993 5.48805 12.4229 4.09554 13.1388L4.42001 12.972C4.07443 13.1496 3.90872 13.5925 4.051 13.9607L5.78362 18.4434C6.05829 19.154 6.7598 20.1591 7.3411 20.664C7.3411 20.664 10.8267 23.549 10.8267 24.6306V26H16.4737L17.8855 23.1765L19.2972 26H20.709V24.6306C20.709 23.549 22.8391 20.1421 22.8391 20.1421C23.2313 19.4799 23.5581 18.3133 23.5581 17.5387V11.8425C23.5325 10.5814 22.4605 9.55935 21.1378 9.55935C20.476 9.55935 19.94 10.0704 19.94 10.7013V11.1575C19.94 9.89638 18.868 8.87432 17.5453 8.87432C16.8836 8.87432 16.3475 9.38535 16.3475 10.0163V10.4725C16.3475 9.21136 15.2755 8.18929 13.9528 8.18929C13.2911 8.18929 12.7551 8.70032 12.7551 9.33123V9.78746C12.7551 9.58478 12.7334 9.42367 12.6915 9.29599L12.3262 3.41348C12.2768 2.61802 11.6064 2 10.8267 2C10.0415 2 9.41489 2.63195 9.41489 3.41149V9.05882V16.1176ZM19.3223 14.7058L20.7341 14.7058V20.3529H19.3223V14.7058V14.7058ZM16.499 14.7058L17.9108 14.7058V20.3529H16.499V14.7058V14.7058ZM13.6758 14.7058L15.0875 14.7058V20.3529H13.6758V14.7058V14.7058Z"
            fill="white" />
        <path
            d="M9.41489 16.1176L8.1981 16.914L10.8691 20.9951V16.1176H9.41489ZM8.16321 14.2052L9.37999 13.4088L9.37999 13.4088L8.16321 14.2052ZM4.051 13.9607L2.69457 14.485L2.69457 14.485L4.051 13.9607ZM5.78362 18.4434L7.14006 17.9191L7.14006 17.9191L5.78362 18.4434ZM7.3411 20.664L6.38751 21.7619L6.40055 21.7732L6.41385 21.7842L7.3411 20.664ZM10.8267 26H9.37243V27.4542H10.8267V26ZM16.4737 26V27.4542H17.3725L17.7744 26.6504L16.4737 26ZM17.8855 23.1765L19.1862 22.5261L17.8855 19.9247L16.5848 22.5261L17.8855 23.1765ZM19.2972 26L17.9965 26.6504L18.3985 27.4542H19.2972V26ZM20.709 26V27.4542H22.1632V26H20.709ZM22.8391 20.1421L24.0722 20.9131L24.0815 20.8982L24.0905 20.8831L22.8391 20.1421ZM23.5581 11.8425H25.0123V11.8278L25.012 11.8131L23.5581 11.8425ZM12.6915 9.29599L11.2401 9.38613L11.2516 9.572L11.3097 9.74896L12.6915 9.29599ZM12.3262 3.41348L10.8748 3.50362L12.3262 3.41348ZM9.41489 3.41149H7.96066H9.41489ZM20.7341 14.7058H22.1883V13.2516L20.7341 13.2516L20.7341 14.7058ZM20.7341 20.3529V21.8071H22.1883V20.3529H20.7341ZM19.3223 20.3529H17.8681V21.8071H19.3223V20.3529ZM17.9108 14.7058H19.365V13.2516L17.9108 13.2516L17.9108 14.7058ZM17.9108 20.3529V21.8071H19.365V20.3529H17.9108ZM16.499 20.3529H15.0448V21.8071H16.499V20.3529ZM15.0875 14.7058H16.5418V13.2516L15.0875 13.2516L15.0875 14.7058ZM15.0875 20.3529V21.8071H16.5418V20.3529H15.0875ZM13.6758 20.3529H12.2215V21.8071H13.6758V20.3529ZM10.6317 15.3213L9.37999 13.4088L6.94642 15.0015L8.1981 16.914L10.6317 15.3213ZM9.37999 13.4088C8.11494 11.4759 5.48061 10.7916 3.43064 11.8454L4.76044 14.4321C5.49549 14.0542 6.50214 14.3227 6.94642 15.0015L9.37999 13.4088ZM4.76044 14.4321L5.0849 14.2653L3.75511 11.6786L3.43064 11.8454L4.76044 14.4321ZM3.75511 11.6786C2.73413 12.2035 2.28997 13.4381 2.69457 14.485L5.40744 13.4364C5.47586 13.6134 5.46123 13.7796 5.41486 13.9037C5.36863 14.0275 5.26716 14.1716 5.0849 14.2653L3.75511 11.6786ZM2.69457 14.485L4.42719 18.9677L7.14006 17.9191L5.40744 13.4364L2.69457 14.485ZM4.42719 18.9677C4.78643 19.8971 5.62522 21.0998 6.38751 21.7619L8.29469 19.566C7.89437 19.2184 7.33016 18.411 7.14006 17.9191L4.42719 18.9677ZM7.3411 20.664C6.41385 21.7842 6.41377 21.7842 6.41369 21.7841C6.41369 21.7841 6.41362 21.7841 6.41361 21.784C6.41358 21.784 6.4136 21.784 6.41368 21.7841C6.41383 21.7842 6.41418 21.7845 6.41475 21.785C6.41587 21.7859 6.41781 21.7875 6.42054 21.7898C6.426 21.7943 6.43461 21.8015 6.44617 21.8112C6.4693 21.8306 6.50418 21.86 6.54913 21.8982C6.63909 21.9746 6.76897 22.0861 6.92537 22.2237C7.23965 22.5001 7.65411 22.8755 8.06451 23.2788C8.48134 23.6885 8.86365 24.0975 9.13164 24.4441C9.26636 24.6183 9.34705 24.7447 9.388 24.8231C9.44408 24.9304 9.37243 24.8442 9.37243 24.6306H12.2809C12.2809 24.1467 12.1003 23.7336 11.9658 23.4762C11.8161 23.1897 11.6245 22.9133 11.4324 22.6649C11.0469 22.1663 10.5578 21.6513 10.1032 21.2045C9.64226 20.7515 9.18532 20.338 8.84607 20.0396C8.6757 19.8898 8.53327 19.7675 8.43261 19.6819C8.38225 19.6391 8.34224 19.6055 8.31431 19.5821C8.30035 19.5704 8.28939 19.5612 8.28166 19.5548C8.27779 19.5516 8.27473 19.549 8.2725 19.5472C8.27139 19.5462 8.27049 19.5455 8.26979 19.5449C8.26944 19.5446 8.26915 19.5444 8.26891 19.5442C8.26879 19.5441 8.26865 19.544 8.26859 19.5439C8.26846 19.5438 8.26834 19.5437 7.3411 20.664ZM9.37243 24.6306V26H12.2809V24.6306H9.37243ZM10.8267 27.4542H16.4737V24.5458H10.8267V27.4542ZM17.7744 26.6504L19.1862 23.8268L16.5848 22.5261L15.173 25.3496L17.7744 26.6504ZM16.5848 23.8268L17.9965 26.6504L20.5979 25.3496L19.1862 22.5261L16.5848 23.8268ZM19.2972 27.4542H20.709V24.5458H19.2972V27.4542ZM22.1632 26V24.6306H19.2548V26H22.1632ZM22.1632 24.6306C22.1632 24.6908 22.1751 24.526 22.3809 24.0401C22.5552 23.6287 22.7974 23.1466 23.0539 22.6713C23.3078 22.2007 23.5635 21.7592 23.7567 21.4339C23.8529 21.2718 23.9329 21.1399 23.9883 21.0492C24.016 21.0039 24.0376 20.9689 24.0519 20.9458C24.0591 20.9342 24.0644 20.9256 24.0678 20.9201C24.0696 20.9173 24.0708 20.9153 24.0715 20.9142C24.0719 20.9136 24.0721 20.9132 24.0722 20.913C24.0723 20.9129 24.0723 20.9129 24.0723 20.9129C24.0723 20.9129 24.0723 20.913 24.0723 20.913C24.0722 20.913 24.0722 20.9131 22.8391 20.1421C21.6061 19.3712 21.606 19.3713 21.606 19.3714C21.6059 19.3714 21.6058 19.3716 21.6058 19.3717C21.6056 19.3719 21.6055 19.3722 21.6053 19.3725C21.6049 19.3731 21.6043 19.374 21.6037 19.375C21.6024 19.3772 21.6005 19.3801 21.5982 19.3838C21.5936 19.3913 21.587 19.4019 21.5785 19.4155C21.5617 19.4428 21.5374 19.4821 21.5069 19.5321C21.4458 19.6319 21.3594 19.7746 21.2559 19.9488C21.0497 20.2961 20.7729 20.7739 20.4943 21.2902C20.2182 21.8019 19.9279 22.3743 19.7028 22.9058C19.5092 23.3629 19.2548 24.0296 19.2548 24.6306H22.1632ZM24.0905 20.8831C24.3722 20.4072 24.5946 19.8204 24.747 19.2713C24.8991 18.723 25.0123 18.1004 25.0123 17.5387H22.1039C22.1039 17.7516 22.0537 18.0996 21.9443 18.4938C21.8352 18.8872 21.6982 19.2148 21.5878 19.4012L24.0905 20.8831ZM25.0123 17.5387V11.8425H22.1039V17.5387H25.0123ZM25.012 11.8131C24.9695 9.71369 23.2046 8.10512 21.1378 8.10512V11.0136C21.7165 11.0136 22.0956 11.4491 22.1041 11.872L25.012 11.8131ZM21.1378 8.10512C19.7391 8.10512 18.4858 9.20263 18.4858 10.7013H21.3943C21.3943 10.8101 21.3456 10.8973 21.2942 10.9462C21.2441 10.994 21.1856 11.0136 21.1378 11.0136V8.10512ZM18.4858 10.7013V11.1575H21.3943V10.7013H18.4858ZM21.3943 11.1575C21.3943 9.02864 19.605 7.42009 17.5453 7.42009V10.3286C18.1311 10.3286 18.4858 10.7641 18.4858 11.1575H21.3943ZM17.5453 7.42009C16.1466 7.42009 14.8933 8.5176 14.8933 10.0163H17.8018C17.8018 10.1251 17.7531 10.2123 17.7018 10.2612C17.6516 10.309 17.5931 10.3286 17.5453 10.3286V7.42009ZM14.8933 10.0163V10.4725H17.8018V10.0163H14.8933ZM17.8018 10.4725C17.8018 8.34361 16.0125 6.73507 13.9528 6.73507V9.64352C14.5386 9.64352 14.8933 10.0791 14.8933 10.4725H17.8018ZM13.9528 6.73507C12.5541 6.73507 11.3008 7.83258 11.3008 9.33123H14.2093C14.2093 9.44004 14.1606 9.52725 14.1093 9.57619C14.0592 9.62396 14.0006 9.64352 13.9528 9.64352V6.73507ZM11.3008 9.33123V9.78746H14.2093V9.33123H11.3008ZM14.2093 9.78746C14.2093 9.49207 14.1791 9.16547 14.0734 8.84302L11.3097 9.74896C11.2976 9.71222 11.2959 9.69379 11.297 9.70181C11.298 9.7098 11.3008 9.73668 11.3008 9.78746H14.2093ZM14.143 9.20585L13.7776 3.32334L10.8748 3.50362L11.2401 9.38613L14.143 9.20585ZM13.7776 3.32334C13.6803 1.75606 12.3693 0.545771 10.8267 0.545771V3.45423C10.8277 3.45423 10.8399 3.45461 10.8564 3.47006C10.8639 3.47703 10.8686 3.48406 10.8711 3.48933C10.8732 3.49368 10.8744 3.49773 10.8748 3.50362L13.7776 3.32334ZM10.8267 0.545771C9.23499 0.545771 7.96066 1.83219 7.96066 3.41149L10.8691 3.41149C10.8691 3.41149 10.8691 3.41162 10.8691 3.41188C10.8691 3.41214 10.8691 3.41251 10.869 3.41297C10.8689 3.41391 10.8688 3.41513 10.8685 3.41656C10.8679 3.4195 10.8669 3.42267 10.8656 3.42581C10.863 3.43195 10.8596 3.43676 10.8559 3.44044C10.8522 3.44416 10.8471 3.44782 10.8405 3.45062C10.8372 3.45203 10.8339 3.45302 10.8309 3.45362C10.8279 3.45424 10.8263 3.45423 10.8267 3.45423V0.545771ZM7.96066 3.41149V9.05882H10.8691V3.41149H7.96066ZM7.96066 9.05882V16.1176H10.8691V9.05882H7.96066ZM19.3223 16.1601L20.7341 16.1601L20.7341 13.2516L19.3223 13.2516L19.3223 16.1601ZM19.2799 14.7058V20.3529H22.1883V14.7058H19.2799ZM20.7341 18.8987H19.3223V21.8071H20.7341V18.8987ZM20.7766 20.3529V14.7058H17.8681V20.3529H20.7766ZM16.499 16.1601L17.9108 16.1601L17.9108 13.2516L16.499 13.2516L16.499 16.1601ZM16.4566 14.7058V20.3529H19.365V14.7058H16.4566ZM17.9108 18.8987H16.499V21.8071H17.9108V18.8987ZM17.9533 20.3529V14.7058H15.0448V20.3529H17.9533ZM13.6758 16.1601L15.0875 16.1601L15.0875 13.2516L13.6758 13.2516L13.6758 16.1601ZM13.6333 14.7058V20.3529H16.5418V14.7058H13.6333ZM15.0875 18.8987H13.6758V21.8071H15.0875V18.8987ZM15.13 20.3529V14.7058H12.2215V20.3529H15.13Z"
            fill="black" fill-opacity="0.8" mask="url(#path-1-outside-1_677_11788)" />
    </g>
    <defs>
        <filter id="filter0_d_677_11788" x="0.545898" y="5.126e-06" width="26.4668" height="30.9084"
            filterUnits="userSpaceOnUse" color-interpolation-filters="sRGB">
            <feFlood flood-opacity="0" result="BackgroundImageFix" />
            <feColorMatrix in="SourceAlpha" type="matrix" values="0 0 0 0 0 0 0 0 0 0 0 0 0 0 0 0 0 0 127 0"
                result="hardAlpha" />
            <feOffset dy="1.45423" />
            <feGaussianBlur stdDeviation="1" />
            <feColorMatrix type="matrix" values="0 0 0 0 0 0 0 0 0 0 0 0 0 0 0 0 0 0 0.2 0" />
            <feBlend mode="normal" in2="BackgroundImageFix" result="effect1_dropShadow_677_11788" />
            <feBlend mode="normal" in="SourceGraphic" in2="effect1_dropShadow_677_11788" result="shape" />
        </filter>
    </defs>
</svg>
